<?xml version="1.0" encoding="utf-8"?>
<!-- Generator: Adobe Illustrator 18.0.0, SVG Export Plug-In . SVG Version: 6.00 Build 0)  -->
<!DOCTYPE svg PUBLIC "-//W3C//DTD SVG 1.1//EN" "http://www.w3.org/Graphics/SVG/1.1/DTD/svg11.dtd">
<svg version="1.1" id="Layer_1" xmlns="http://www.w3.org/2000/svg" xmlns:xlink="http://www.w3.org/1999/xlink" x="0px" y="0px"
	 viewBox="0 0 512 512" enable-background="new 0 0 512 512" xml:space="preserve" stroke="#FFF">
<g>
	<defs>
		<rect id="SVGID_1_" x="0" y="0" width="512" height="512"/>
	</defs>
	<clipPath id="SVGID_2_">
		<use xlink:href="#SVGID_1_"  overflow="visible"/>
	</clipPath>
	<path clip-path="url(#SVGID_2_)" d="M234.7,18.2c-100.1,0-98.9,82.9-98.9,82.9l-0.6,44.1c-8.2-0.1-10.1,7.6-10.1,22.9
		c0,23,14.8,47.1,28.2,59.5c4.5,18.1,13.2,34,24.9,46.1c-40.1,23.5-88.3,39.3-119.7,55.1C26.7,344.7,0,404.9,0,452.9
		c62.3,27.8,183,32,234.7,32c25.3,0,67.1-1,110.5-5.3L290.8,434c-38.6-32.5-38.6-85.2,0-117.7c11.5-9.7,27.2-17.5,43.8-20.8
		c-14.8-6.6-29.6-13.8-43.5-21.9c11.7-12.1,20.4-28,24.9-46.1c13.4-12.4,28.2-36.5,28.2-59.5c0-15.3-2-23-10.2-22.9l-0.6-44.1
		C333.6,101.1,334.8,18.2,234.7,18.2z"/>
</g>
<g>
	<defs>
		<rect id="SVGID_3_" x="0" width="512" height="512"/>
	</defs>
	<clipPath id="SVGID_4_">
		<use xlink:href="#SVGID_3_"  overflow="visible"/>
	</clipPath>
	<path clip-path="url(#SVGID_4_)" d="M310.9,417.9c-27.3-22.9-27.3-60.2,0-83.1c24.3-20.4,75.3-29.5,89.8,25.2
		c15.5-57.4,66.4-46,90.8-25.4l0,0.2c27.3,22.9,27.3,60.2,0,83.1l-90.2,75.9L310.9,417.9z"/>
</g>
</svg>
